# xmcd
#
# Track frame offsets:
#	150
#	9085
#	19357
#	29106
#	40392
#	51395
#	63424
#	73809
#	83448
#	94423
#	108907
#	121760
#	132662
#	141104
#	156154
#	167482
#
# Disc length: 2374 seconds
# Revision: 2
# Processed by: cddbd v1.5.2PL0 Copyright (c) Steve Scherf et al.
# Submitted via: dBpowerAMP V12.0
#
DISCID=dc094410
DTITLE=George Jones and Tammy Wynette - The Classic Christmas Album
DYEAR=2013
DGENRE=Country
TTITLE0=Mr. and Mrs. Santa Claus
TTITLE1=A New Baby For Christmas [Single Version]
TTITLE2=Maybe Next Christmas
TTITLE3=Blue Christmas
TTITLE4=Lonely Christmas Call
TTITLE5=White Christmas
TTITLE6=Jingle Bells
TTITLE7=One Happy Christmas
TTITLE8=Silver Bells
TTITLE9=It Came Upon A Midnight Clear
TTITLE10=O Little Town Of Bethlehem
TTITLE11=Away In A Manger
TTITLE12=Joy To The World
TTITLE13=Silent Night, Holy Night
TTITLE14=(Merry Christmas) We Must Be Having One
TTITLE15=The Greatest Christmas Gift
EXTD=
EXTT0=
EXTT1=
EXTT2=
EXTT3=
EXTT4=
EXTT5=
EXTT6=
EXTT7=
EXTT8=
EXTT9=
EXTT10=
EXTT11=
EXTT12=
EXTT13=
EXTT14=
EXTT15=
PLAYORDER=
